<svg xmlns="http://www.w3.org/2000/svg" version="1.1" xmlns:xlink="http://www.w3.org/1999/xlink" xmlns:svgjs="http://svgjs.dev/svgjs" width="1500" height="1500" viewBox="0 0 1500 1500"><rect width="1500" height="1500" fill="#ececea"></rect><g transform="matrix(0.6666666666666666,0,0,0.6666666666666666,250.00007343750008,187.66666666666674)"><svg viewBox="0 0 320 360" data-background-color="#ececea" preserveAspectRatio="xMidYMid meet" height="1687" width="1500" xmlns="http://www.w3.org/2000/svg" xmlns:xlink="http://www.w3.org/1999/xlink"><g id="tight-bounds" transform="matrix(1,0,0,1,0.000023499999997511622,0)"><svg viewBox="0 0 320 360" height="360" width="320"><g><svg></svg></g><g><svg viewBox="0 0 320 360" height="360" width="320"><g><path transform="translate(-74.99272,-51.79039) scale(4.65793,4.65793)" d="M20.6 59.9l0.8 1-0.4-1.3c-0.1-0.6-0.8 0.1-0.4 0.3M21.5 59.3c0.3 0.5 0.6 1 0.6 1.5 0 0.7 0.6 1 1.1 1.2-0.7-0.8-1.1-3-1.7-2.7M59.9 16.9c1.7 0 3.3-0.2 5.1 0.2 4.4 1.1 8.1 3.3 10.6 6.4l7 11.2c0.3 2.8 0.9 5.9 0.8 9.3 0.7 0 0.6-1 1.4-1.2-0.8 2-1.2 4.5-1.4 7.4-0.5-1.6 0-4 0.1-5.3-0.7 1.1-1.1 0.3-1.1-0.2 0.1-0.8-0.3-0.7-0.6-1-1.1-1-1.8-2.1-2.6-3.8 0.5-1.3 0.6-3.2-1-4.2-0.5-0.3-1.1-0.8-1.4-1.6-0.4-1.1-1.1-2.4-0.9-4.1 0.1-0.5-1.5 1.1-2.4 0.4-3.9-2.7-7.8-5.8-12.5-8.4-2.5 0-4.3-0.9-5.2-2-0.8-1-0.2-2.3 1-2.4 0.7 0 1.5-0.2 2.1 0.2 0.1-0.4 0.5-0.9 1-0.9M50 14.6l0.2 0.1c1 0.2 1.5 1.6 2.6 1.1 0 0.7 0.1 1.4-0.1 1.9-0.3 0.8-1.2 0.8-1.9 0.8-6.7-0.4-10.6 2.4-14.7 4.8-1.1 0.7-2.3 1.2-3.2 2.1-4.3 4-9 7.7-10.1 15.1l-0.9 8.2c-0.1 0.9-1.1 1.8-0.9 2.9l0.7 4.9c-0.7-0.7-1.1 0.2-0.9 0.6 0.1 0.3 0.5 1.3 1.1 0.4 0.8 1.5 1.6 4.4 2.7 5.7 3.4 4 7.8 7.6 11.4 11.2 0.9-0.2 1.6-0.2 1.8-0.8 0.3 0.6-0.3 1.2-0.8 1.3 1.6 1 3.4 1.9 5.8 2.1 3.1 0.2 6 0.7 8.7 1.4 1.4-0.4 2.8-0.6 4.3-0.7 0.5 0 0.8-0.8 1.4-1l0.1-1c0.6 0.9 0.5-0.3 0.1-0.9 0.7 0.6 0.9 1.1 1.2 1.5 0-0.3 0.8-1.4 0.8-0.1l0.2-1.3c0.3-0.2 0.4 1.1 0.7 0.2 0.3-0.9 0.9-0.2 1.5-0.5-0.2 0.4-0.1 1.2 0.6 0.7l0.8-0.7c0.5 1.2 1.3 0.7 1.7 0.5 4.4-2.8 8.8-6.1 13-9.4l-0.1 1.3 0.5-1.6c0.5 0.5 0.9 0.1 1.1-0.2 0.6-1 1.4-2 2.7-2.9-1.6 4.3-3.5 7.7-5.9 10.5l-1 1.2c0 0.7-0.2 1.6-1 1.7-0.4 0.1-1.2-0.2-1.8 0.4-0.3 0.4 0.7 1.2-0.1 0.6-0.7-0.5-1.4 0-2.2 0.2-0.6 0.2 0.4 0.8 0.6 1.2 0.2 0.4 0.4 0.8 0.3 1.3l-1.1-1.2c-1.3 0.7-2.1 2-3.2 3-0.5 0.4-0.3 1.1-0.3 1.7-0.7 0-1.5-0.2-1.9 0.2-0.3 0.4-0.2 1-0.2 1.6-1-0.1-1.1-1.6-2-1.3-0.9 0.2-1.9 0.3-2.7 0.8 0.6 1.2-1 0.5-0.8 0.7-1.5-0.9-2.8-1.6-4.4-1-3.4-1.1-7.6-0.6-10.7-0.2 0-0.5 0.1-1-0.1-1.1-0.2 0.5-0.8 0.3-0.7 0.3-1.9-1.3-3.8-2.1-5.8-3.2-1.8 0.2-3.5-0.7-4-1.2-1.4-1.3-3-0.6-4.3-0.9-2.8-0.7-3.8-3.6-4.1-5.6-0.2-1-1-1.4-1.3-1.3-1.3-4.2-3.3-8-4.9-11.9-0.4-1-0.3-2-0.3-3.1 0.5 0.2 1 0.1 0.9-0.6-0.5-3.3-1.7-5.8-3-8.2 0.7-3.4 0.8-7.4 2.4-10.4 1.4-2.7 4-4.1 5.8-6.4 0.6-0.8 0.6-1.9 1.2-2.6 2-2 4-4.1 6.2-5.9 1-0.8 2.2 0 3.7-0.3 0.5-1.8 2.5-3.4 4.4-2.9 0.8 0.2 2.4-1.9 2.9-2.1 0.8-0.3 0.4 0.8 0.4 1.5 1.9-1.5 4.5-2.3 6.9-3.2" fill="#009b7d" fill-rule="nonzero" stroke="none" stroke-width="1" stroke-linecap="butt" stroke-linejoin="miter" stroke-miterlimit="10" stroke-dasharray="" stroke-dashoffset="0" font-family="none" font-weight="none" font-size="none" text-anchor="none" style="mix-blend-mode: normal" data-fill-palette-color="tertiary"></path></g><g transform="matrix(1,0,0,1,64,92.02133437483059)"><svg viewBox="0 0 192 175.95733125033883" height="175.95733125033883" width="192"><g><svg viewBox="0 0 192 175.95733125033883" height="175.95733125033883" width="192"><g><svg viewBox="0 0 192 175.95733125033883" height="175.95733125033883" width="192"><g transform="matrix(1,0,0,1,0,104.77974360775924)"><svg viewBox="0 0 192 71.17758764257957" height="71.17758764257957" width="192"><g id="textblocktransform"><svg viewBox="0 0 192 71.17758764257957" height="71.17758764257957" width="192" id="textblock"><g><svg viewBox="0 0 192 43.94285714285714" height="43.94285714285714" width="192"><g transform="matrix(1,0,0,1,0,0)"><svg width="192" viewBox="1.5 -36.35 167.98 38.45" height="43.94285714285714" data-palette-color="#009b7d"><path d="M5.95-15.65L5.95-15.65Q7.4-15.15 9.08-14.88 10.75-14.6 12.6-14.6L12.6-14.6Q13.1-14.6 13.78-14.65 14.45-14.7 14.75-14.8L14.75-14.8Q15.15-16.25 15.33-17.48 15.5-18.7 15.5-19.7L15.5-19.7Q15.5-21.9 14.78-22.85 14.05-23.8 12.45-23.8L12.45-23.8Q10.35-23.8 8.6-21.55 6.85-19.3 5.95-15.65ZM17.1-8.5L17.1-8.5Q17.9-8.35 18.73-7.9 19.55-7.45 20.15-6.85L20.15-6.85Q19.2-4 16.28-1.73 13.35 0.55 10.2 0.55L10.2 0.55Q6.15 0.55 3.83-2.6 1.5-5.75 1.5-11.05L1.5-11.05Q1.5-17 4.83-21.75 8.15-26.5 12.75-26.5L12.75-26.5Q15.7-26.5 17.43-24.63 19.15-22.75 19.15-19.55L19.15-19.55Q19.15-17.85 18.82-16.13 18.5-14.4 17.95-12.85L17.95-12.85Q16.95-12.5 15.53-12.33 14.1-12.15 12-12.15L12-12.15Q10.4-12.15 8.72-12.43 7.05-12.7 5.5-13.25L5.5-13.25Q5.4-12.65 5.38-12.08 5.35-11.5 5.35-10.95L5.35-10.95Q5.35-7 6.73-4.58 8.1-2.15 10.4-2.15L10.4-2.15Q12.4-2.15 14.4-4.03 16.4-5.9 17.1-8.5ZM41.4 1.65L41.4 1.65Q40.8 1.85 39.97 1.98 39.15 2.1 38.55 2.1L38.55 2.1Q38.4 0.5 38.3-1.13 38.2-2.75 38.15-4.35L38.15-4.35Q37.2-1.35 35.65 0.08 34.1 1.5 31.75 1.5L31.75 1.5Q27.9 1.5 25.65-2.1 23.4-5.7 23.4-11.65L23.4-11.65Q23.4-18.2 26.37-22.13 29.35-26.05 34.3-26.05L34.3-26.05Q35.1-26.05 35.95-25.95 36.8-25.85 37.5-25.65L37.5-25.65Q37.45-30.35 37.42-32.3 37.4-34.25 37.4-35.8L37.4-35.8Q37.85-36.05 38.55-36.2 39.25-36.35 39.9-36.35L39.9-36.35Q40.3-36.35 40.75-36.27 41.2-36.2 41.75-36.1L41.75-36.1Q41.5-33 41.37-27.23 41.25-21.45 41.25-6.1L41.25-6.1Q41.25-3.85 41.27-2.18 41.3-0.5 41.4 1.65ZM27.2-12.2L27.2-12.2Q27.2-7.05 28.55-4.23 29.9-1.4 32.3-1.4L32.3-1.4Q34.5-1.4 35.92-3.88 37.35-6.35 37.85-11.15L37.85-11.15Q37.75-13.95 37.67-16.95 37.6-19.95 37.55-23L37.55-23Q36.95-23.2 36.25-23.28 35.55-23.35 34.75-23.35L34.75-23.35Q31.35-23.35 29.27-20.38 27.2-17.4 27.2-12.2ZM54.1 0.5L54.1 0.5Q50.45 0.5 48.57-3.05 46.7-6.6 46.7-13.5L46.7-13.5Q46.7-17 47.27-20.53 47.85-24.05 48.7-25.6L48.7-25.6Q49.15-25.75 49.6-25.83 50.05-25.9 50.5-25.9L50.5-25.9Q50.95-25.9 51.32-25.83 51.7-25.75 52.05-25.55L52.05-25.55Q51.3-23.15 50.9-20.05 50.5-16.95 50.5-13.35L50.5-13.35Q50.5-8.5 51.62-5.4 52.75-2.3 54.65-2.3L54.65-2.3Q57-2.3 58.22-5.9 59.45-9.5 59.45-16L59.45-16Q59.45-18 59.25-20.18 59.05-22.35 58.85-23.2L58.85-23.2Q59.6-23.55 60.7-23.75 61.8-23.95 62.8-23.95L62.8-23.95Q63.05-22.8 63.17-21.2 63.3-19.6 63.3-17.95L63.3-17.95Q63.3-9 60.97-4.25 58.65 0.5 54.1 0.5ZM85.64-15L85.64-15Q85.64-7.4 82.52-2.85 79.39 1.7 74.29 1.7L74.29 1.7Q72.54 1.7 71.09 1.15 69.64 0.6 68.34-0.55L68.34-0.55Q68.19-3.3 68.09-7.1 67.99-10.9 67.99-15.95L67.99-15.95Q67.99-21.45 68.24-26.93 68.49-32.4 68.89-35.65L68.89-35.65Q69.44-35.85 70.12-35.95 70.79-36.05 71.64-36.05L71.64-36.05Q72.04-36.05 72.39-36 72.74-35.95 73.44-35.8L73.44-35.8Q72.99-33.05 72.59-29.53 72.19-26 71.89-21.8L71.89-21.8Q73.14-23.7 74.79-24.63 76.44-25.55 78.54-25.55L78.54-25.55Q81.99-25.55 83.82-22.85 85.64-20.15 85.64-15ZM71.59-2.2L71.59-2.2Q72.19-1.65 72.94-1.4 73.69-1.15 74.54-1.15L74.54-1.15Q77.94-1.15 79.79-4.85 81.64-8.55 81.64-15.2L81.64-15.2Q81.64-18.95 80.54-20.83 79.44-22.7 77.24-22.7L77.24-22.7Q75.64-22.7 74.12-21.08 72.59-19.45 71.64-16.65L71.64-16.65Q71.59-15.05 71.54-13.5 71.49-11.95 71.49-10.5L71.49-10.5Q71.49-6.5 71.52-4.95 71.54-3.4 71.59-2.2ZM89.64-12.1L89.64-12.1Q89.64-18.6 92.62-22.7 95.59-26.8 100.29-26.8L100.29-26.8Q104.14-26.8 106.39-23.88 108.64-20.95 108.64-16L108.64-16Q108.64-8.75 105.82-4.13 102.99 0.5 98.34 0.5L98.34 0.5Q94.34 0.5 91.99-2.98 89.64-6.45 89.64-12.1ZM104.64-13.9L104.64-13.9Q104.64-19 103.34-21.5 102.04-24 99.39-24L99.39-24Q96.99-24 95.22-20.7 93.44-17.4 93.44-12.6L93.44-12.6Q93.44-8.2 94.94-5.23 96.44-2.25 98.99-2.25L98.99-2.25Q101.24-2.25 102.94-5.68 104.64-9.1 104.64-13.9ZM130.19-17.05L130.19-17.05Q130.19-13.75 129.29-8.3 128.39-2.85 127.14 1.7L127.14 1.7Q126.39 1.7 125.54 1.55 124.69 1.4 123.89 1.15L123.89 1.15Q123.94 0.95 123.99 0.68 124.04 0.4 124.19-0.05L124.19-0.05Q124.34-0.85 124.44-1.23 124.54-1.6 124.59-1.9L124.59-1.9Q123.54-1.15 122.21-0.75 120.89-0.35 119.39-0.35L119.39-0.35Q115.99-0.35 113.89-2.18 111.79-4 111.79-7L111.79-7Q111.79-10.25 114.54-11.95 117.29-13.65 122.64-13.65L122.64-13.65Q123.44-13.65 124.19-13.63 124.94-13.6 126.19-13.55L126.19-13.55Q126.24-14.05 126.24-14.65 126.24-15.25 126.24-16.55L126.24-16.55Q126.24-20.55 125.26-22.35 124.29-24.15 122.04-24.15L122.04-24.15Q119.74-24.15 118.19-22.13 116.64-20.1 116.54-17L116.54-17Q115.14-17.2 114.29-17.68 113.44-18.15 112.99-18.95L112.99-18.95Q113.59-22.25 116.31-24.55 119.04-26.85 122.54-26.85L122.54-26.85Q126.34-26.85 128.26-24.38 130.19-21.9 130.19-17.05ZM115.74-6.9L115.74-6.9Q115.74-5.05 116.94-3.98 118.14-2.9 120.09-2.9L120.09-2.9Q121.49-2.9 122.76-3.33 124.04-3.75 125.14-4.6L125.14-4.6Q125.54-6.65 125.76-8.25 125.99-9.85 126.09-11.45L126.09-11.45Q120.94-11.75 118.34-10.63 115.74-9.5 115.74-6.9ZM140.44 0.1L140.44 0.1Q140.04 0.25 139.49 0.35 138.94 0.45 138.39 0.45L138.39 0.45Q137.99 0.5 137.66 0.45 137.34 0.4 137.04 0.3L137.04 0.3Q135.79-6.05 135.36-13 134.94-19.95 135.29-27L135.29-27Q135.64-27.15 136.14-27.23 136.64-27.3 137.64-27.3L137.64-27.3Q138.14-27.3 138.61-27.23 139.09-27.15 139.59-27L139.59-27Q139.29-24.85 139.14-23.35 138.99-21.85 138.94-20.5L138.94-20.5Q140.09-24.4 141.99-26.65 143.89-28.9 145.94-28.9L145.94-28.9Q147.94-28.9 148.89-27.43 149.84-25.95 149.84-22.9L149.84-22.9Q149.84-22.3 149.79-21.6 149.74-20.9 149.69-20.1L149.69-20.1Q149.09-19.95 148.26-19.88 147.44-19.8 146.49-19.85L146.49-19.85Q146.59-20.6 146.64-21.28 146.69-21.95 146.69-22.6L146.69-22.6Q146.69-24.2 146.29-24.98 145.89-25.75 145.09-25.75L145.09-25.75Q143.39-25.75 141.69-22.18 139.99-18.6 138.99-12.9L138.99-12.9Q139.14-10.05 139.49-6.83 139.84-3.6 140.44 0.1ZM169.13 1.65L169.13 1.65Q168.53 1.85 167.71 1.98 166.88 2.1 166.28 2.1L166.28 2.1Q166.13 0.5 166.03-1.13 165.93-2.75 165.88-4.35L165.88-4.35Q164.93-1.35 163.38 0.08 161.83 1.5 159.48 1.5L159.48 1.5Q155.63 1.5 153.38-2.1 151.13-5.7 151.13-11.65L151.13-11.65Q151.13-18.2 154.11-22.13 157.08-26.05 162.03-26.05L162.03-26.05Q162.83-26.05 163.68-25.95 164.53-25.85 165.23-25.65L165.23-25.65Q165.18-30.35 165.16-32.3 165.13-34.25 165.13-35.8L165.13-35.8Q165.58-36.05 166.28-36.2 166.98-36.35 167.63-36.35L167.63-36.35Q168.03-36.35 168.48-36.27 168.93-36.2 169.48-36.1L169.48-36.1Q169.23-33 169.11-27.23 168.98-21.45 168.98-6.1L168.98-6.1Q168.98-3.85 169.01-2.18 169.03-0.5 169.13 1.65ZM154.93-12.2L154.93-12.2Q154.93-7.05 156.28-4.23 157.63-1.4 160.03-1.4L160.03-1.4Q162.23-1.4 163.66-3.88 165.08-6.35 165.58-11.15L165.58-11.15Q165.48-13.95 165.41-16.95 165.33-19.95 165.28-23L165.28-23Q164.68-23.2 163.98-23.28 163.28-23.35 162.48-23.35L162.48-23.35Q159.08-23.35 157.01-20.38 154.93-17.4 154.93-12.2Z" opacity="1" transform="matrix(1,0,0,1,0,0)" fill="#009b7d" class="wordmark-text-0" data-fill-palette-color="primary" id="text-0"></path></svg></g></svg></g><g transform="matrix(1,0,0,1,0,50.355174628571426)"><svg viewBox="0 0 192 20.822413014008134" height="20.822413014008134" width="192"><g transform="matrix(1,0,0,1,0,0)"><svg width="192" viewBox="3.0999999999999996 -37.6 442.53999999999996 48" height="20.822413014008134" data-palette-color="#009b7d"><path d="M5.95 0.1L5.55 0.1Q4.45 0.1 4.03-0.2 3.6-0.5 3.6-1L3.6-1 3.6-18.65Q3.6-21.75 3.35-23.18 3.1-24.6 3.1-25.1L3.1-25.1Q3.1-25.65 4.15-25.88 5.2-26.1 6-26.1L6-26.1Q6.7-26.1 6.98-25.35 7.25-24.6 7.6-22.7L7.6-22.7Q8.8-24.45 10.4-25.45 12-26.45 13.95-26.45L13.95-26.45Q15.7-26.45 17.4-25.55 19.1-24.65 19.8-22.45L19.8-22.45Q20.95-24.25 22.6-25.35 24.25-26.45 26.25-26.45L26.25-26.45Q27.9-26.45 29.35-25.75 30.8-25.05 31.68-23.55 32.55-22.05 32.55-19.6L32.55-19.6 32.55-1Q32.55-0.5 32.13-0.2 31.7 0.1 30.6 0.1L30.6 0.1 30.2 0.1Q29.1 0.1 28.68-0.2 28.25-0.5 28.25-1L28.25-1 28.25-18.75Q28.25-20.65 27.4-21.73 26.55-22.8 24.8-22.8L24.8-22.8Q23.1-22.8 21.88-21.58 20.65-20.35 20.2-19.15L20.2-19.15Q20.2-19 20.2-18.82 20.2-18.65 20.2-18.5L20.2-18.5 20.2-1Q20.2-0.5 19.78-0.2 19.35 0.1 18.25 0.1L18.25 0.1 17.85 0.1Q16.75 0.1 16.32-0.2 15.9-0.5 15.9-1L15.9-1 15.9-18.75Q15.9-20.65 15.08-21.73 14.25-22.8 12.5-22.8L12.5-22.8Q11.25-22.8 10.28-22.18 9.3-21.55 8.7-20.73 8.1-19.9 7.9-19.3L7.9-19.3 7.9-1Q7.9-0.5 7.48-0.2 7.05 0.1 5.95 0.1L5.95 0.1ZM45.05 0.3L45.05 0.3Q41.85 0.3 39.92-1.68 38-3.65 38-7.45L38-7.45Q38-10.45 39.22-12.28 40.45-14.1 42.42-15.03 44.4-15.95 46.75-16.25 49.1-16.55 51.35-16.55L51.35-16.55 51.35-18.95Q51.35-20.5 50.42-21.68 49.5-22.85 47.1-22.85L47.1-22.85Q45.25-22.85 43.72-22.45 42.2-22.05 41.25-21.63 40.3-21.2 40-21.2L40-21.2Q39.5-21.2 39.2-22.15 38.9-23.1 38.9-23.7L38.9-23.7Q38.9-24.15 40.15-24.8 41.4-25.45 43.3-25.95 45.2-26.45 47.15-26.45L47.15-26.45Q51.15-26.45 53.4-24.45 55.65-22.45 55.65-18.9L55.65-18.9 55.65-7.4Q55.65-4.35 55.9-2.93 56.15-1.5 56.15-1.15L56.15-1.15Q56.15-0.55 55.1-0.25 54.05 0.05 53.25 0.05L53.25 0.05Q52.6 0.05 52.32-0.68 52.05-1.4 51.7-3.15L51.7-3.15Q50.45-1.55 48.82-0.63 47.2 0.3 45.05 0.3ZM45.85-3.25L45.85-3.25Q47.6-3.25 48.97-4.1 50.35-4.95 51.35-6.5L51.35-6.5 51.35-13Q46.45-13 44.42-11.88 42.4-10.75 42.4-7.5L42.4-7.5Q42.4-3.25 45.85-3.25ZM65.2 0.1L64.8 0.1Q63.7 0.1 63.27-0.2 62.85-0.5 62.85-1L62.85-1 62.85-36.5Q62.85-37.05 63.27-37.33 63.7-37.6 64.75-37.6L64.75-37.6 65.2-37.6Q66.3-37.6 66.72-37.33 67.15-37.05 67.15-36.5L67.15-36.5 67.15-14.65 67.4-14.65 75.4-25.25Q75.9-25.9 76.37-26.08 76.84-26.25 77.8-26.25L77.8-26.25 78.7-26.25Q80.34-26.25 80.34-25.5L80.34-25.5Q80.34-25.15 79.9-24.55L79.9-24.55 71.5-13.6 79.55-1.4Q79.9-0.85 79.9-0.6L79.9-0.6Q79.9 0.1 77.95 0.1L77.95 0.1 76.95 0.1Q75.65 0.1 74.95-1L74.95-1 67.4-12.4 67.15-12.4 67.15-1Q67.15-0.5 66.72-0.2 66.3 0.1 65.2 0.1L65.2 0.1ZM92.54 0.3L92.54 0.3Q87.54 0.3 84.99-2.95 82.44-6.2 82.44-12.9L82.44-12.9Q82.44-19.55 84.94-23 87.44-26.45 92.29-26.45L92.29-26.45Q96.64-26.45 98.84-23.1 101.04-19.75 101.04-13.35L101.04-13.35Q101.04-11.35 99.29-11.35L99.29-11.35 86.84-11.35Q86.99-7.2 88.39-5.25 89.79-3.3 92.84-3.3L92.84-3.3Q94.59-3.3 95.94-3.8 97.29-4.3 98.17-4.78 99.04-5.25 99.29-5.25L99.29-5.25Q99.79-5.25 100.12-4.38 100.44-3.5 100.44-2.9L100.44-2.9Q100.44-2.45 99.39-1.68 98.34-0.9 96.57-0.3 94.79 0.3 92.54 0.3ZM86.89-14.95L86.89-14.95 96.79-14.95Q96.79-22.85 92.14-22.85L92.14-22.85Q87.04-22.85 86.89-14.95ZM119.39 0.3L119.39 0.3Q118.34 0.3 117.04-0.15 115.74-0.6 114.81-1.93 113.89-3.25 113.89-5.8L113.89-5.8 113.89-22.55 111.89-22.55Q110.89-22.55 110.89-24.05L110.89-24.05 110.89-24.65Q110.89-26.15 111.89-26.15L111.89-26.15 113.89-26.15 114.49-31.4Q114.64-32.5 116.04-32.5L116.04-32.5 116.44-32.5Q117.44-32.5 117.81-32.23 118.19-31.95 118.19-31.4L118.19-31.4 118.19-26.15 121.54-26.15Q122.54-26.15 122.54-24.65L122.54-24.65 122.54-24.05Q122.54-22.55 121.54-22.55L121.54-22.55 118.19-22.55 118.19-6.3Q118.19-4.55 118.56-3.93 118.94-3.3 120.04-3.3L120.04-3.3Q120.94-3.3 121.36-3.43 121.79-3.55 122.04-3.55L122.04-3.55Q122.39-3.55 122.56-3.05 122.74-2.55 122.79-1.98 122.84-1.4 122.84-1.15L122.84-1.15Q122.84-0.65 122.24-0.33 121.64 0 120.84 0.15 120.04 0.3 119.39 0.3ZM130.14 0.1L129.74 0.1Q128.64 0.1 128.21-0.2 127.79-0.5 127.79-1L127.79-1 127.79-36.5Q127.79-37.6 129.69-37.6L129.69-37.6 130.19-37.6Q132.09-37.6 132.09-36.5L132.09-36.5 132.09-23.1Q133.09-24.5 134.74-25.48 136.39-26.45 138.39-26.45L138.39-26.45Q140.14-26.45 141.64-25.75 143.14-25.05 144.06-23.55 144.99-22.05 144.99-19.6L144.99-19.6 144.99-1Q144.99-0.5 144.56-0.2 144.14 0.1 143.04 0.1L143.04 0.1 142.64 0.1Q141.54 0.1 141.11-0.2 140.69-0.5 140.69-1L140.69-1 140.69-18.75Q140.69-20.65 139.76-21.73 138.84-22.8 136.94-22.8L136.94-22.8Q135.64-22.8 134.59-22.18 133.54-21.55 132.91-20.73 132.29-19.9 132.09-19.3L132.09-19.3 132.09-1Q132.09-0.5 131.66-0.2 131.24 0.1 130.14 0.1L130.14 0.1ZM160.73 0.3L160.73 0.3Q155.73 0.3 153.18-2.95 150.63-6.2 150.63-12.9L150.63-12.9Q150.63-19.55 153.13-23 155.63-26.45 160.48-26.45L160.48-26.45Q164.83-26.45 167.03-23.1 169.23-19.75 169.23-13.35L169.23-13.35Q169.23-11.35 167.48-11.35L167.48-11.35 155.03-11.35Q155.18-7.2 156.58-5.25 157.98-3.3 161.03-3.3L161.03-3.3Q162.78-3.3 164.13-3.8 165.48-4.3 166.36-4.78 167.23-5.25 167.48-5.25L167.48-5.25Q167.98-5.25 168.31-4.38 168.63-3.5 168.63-2.9L168.63-2.9Q168.63-2.45 167.58-1.68 166.53-0.9 164.76-0.3 162.98 0.3 160.73 0.3ZM155.08-14.95L155.08-14.95 164.98-14.95Q164.98-22.85 160.33-22.85L160.33-22.85Q155.23-22.85 155.08-14.95ZM184.03 10.4L183.48 10.4Q181.58 10.4 181.58 9.3L181.58 9.3 181.58-18.65Q181.58-21.75 181.33-23.18 181.08-24.6 181.08-25.1L181.08-25.1Q181.08-25.65 182.13-25.88 183.18-26.1 183.98-26.1L183.98-26.1Q184.63-26.1 184.9-25.45 185.18-24.8 185.53-23.1L185.53-23.1Q186.73-24.85 188.3-25.65 189.88-26.45 191.58-26.45L191.58-26.45Q194.03-26.45 195.78-24.78 197.53-23.1 198.5-20.13 199.48-17.15 199.48-13.25L199.48-13.25Q199.48-6.75 197.18-3.23 194.88 0.3 191.18 0.3L191.18 0.3Q189.33 0.3 188.1-0.43 186.88-1.15 185.88-2.25L185.88-2.25 185.88 9.3Q185.88 10.4 184.03 10.4L184.03 10.4ZM190.08-3.4L190.08-3.4Q192.63-3.4 193.85-5.95 195.08-8.5 195.08-13.3L195.08-13.3Q195.08-17.8 193.95-20.3 192.83-22.8 190.53-22.8L190.53-22.8Q187.93-22.8 185.88-19.35L185.88-19.35 185.88-5.65Q187.63-3.4 190.08-3.4ZM207.48 0.1L207.28 0.1Q205.28 0.1 205.28-1L205.28-1 205.28-18.65Q205.28-21.75 205.03-23.18 204.78-24.6 204.78-25.1L204.78-25.1Q204.78-25.65 205.83-25.88 206.88-26.1 207.68-26.1L207.68-26.1Q208.38-26.1 208.65-25.38 208.93-24.65 209.28-22.75L209.28-22.75Q210.58-24.5 212.28-25.48 213.98-26.45 215.53-26.45L215.53-26.45Q216.38-26.45 216.68-26.05 216.98-25.65 216.98-24.85L216.98-24.85Q216.98-23.75 216.68-22.93 216.38-22.1 215.93-22.1L215.93-22.1Q215.58-22.1 215.1-22.23 214.63-22.35 213.68-22.35L213.68-22.35Q212.28-22.35 211.13-21.48 209.98-20.6 209.58-19.3L209.58-19.3 209.58-1Q209.58 0.1 207.48 0.1L207.48 0.1ZM228.27 0.3L228.27 0.3Q223.57 0.3 221.1-3.1 218.62-6.5 218.62-12.95L218.62-12.95Q218.62-19.45 221.1-22.95 223.57-26.45 228.27-26.45L228.27-26.45Q232.92-26.45 235.35-22.98 237.77-19.5 237.77-12.95L237.77-12.95Q237.77-6.45 235.37-3.08 232.97 0.3 228.27 0.3ZM228.17-3.3L228.17-3.3Q230.82-3.3 232.1-5.68 233.37-8.05 233.37-13.05L233.37-13.05Q233.37-18.05 232.1-20.45 230.82-22.85 228.17-22.85L228.17-22.85Q225.47-22.85 224.25-20.48 223.02-18.1 223.02-13.05L223.02-13.05Q223.02-8.05 224.25-5.68 225.47-3.3 228.17-3.3ZM252.27 0.3L252.27 0.3Q247.22 0.3 244.67-3.1 242.12-6.5 242.12-12.95L242.12-12.95Q242.12-19.45 244.67-22.95 247.22-26.45 252.27-26.45L252.27-26.45Q253.72-26.45 255.07-26.18 256.42-25.9 257.27-25.45 258.12-25 258.12-24.55L258.12-24.55Q258.12-23.95 257.82-23 257.52-22.05 257.02-22.05L257.02-22.05Q256.62-22.05 255.4-22.45 254.17-22.85 252.17-22.85L252.17-22.85Q249.22-22.85 247.87-20.48 246.52-18.1 246.52-13.05L246.52-13.05Q246.52-8.05 247.87-5.68 249.22-3.3 252.17-3.3L252.17-3.3Q254.27-3.3 255.6-3.83 256.92-4.35 257.32-4.35L257.32-4.35Q257.82-4.35 258.12-3.4 258.42-2.45 258.42-1.85L258.42-1.85Q258.42-1.4 257.52-0.9 256.62-0.4 255.22-0.05 253.82 0.3 252.27 0.3ZM270.72 0.3L270.72 0.3Q265.72 0.3 263.17-2.95 260.62-6.2 260.62-12.9L260.62-12.9Q260.62-19.55 263.12-23 265.62-26.45 270.47-26.45L270.47-26.45Q274.82-26.45 277.02-23.1 279.22-19.75 279.22-13.35L279.22-13.35Q279.22-11.35 277.47-11.35L277.47-11.35 265.02-11.35Q265.17-7.2 266.57-5.25 267.97-3.3 271.02-3.3L271.02-3.3Q272.77-3.3 274.12-3.8 275.47-4.3 276.34-4.78 277.22-5.25 277.47-5.25L277.47-5.25Q277.97-5.25 278.29-4.38 278.62-3.5 278.62-2.9L278.62-2.9Q278.62-2.45 277.57-1.68 276.52-0.9 274.74-0.3 272.97 0.3 270.72 0.3ZM265.07-14.95L265.07-14.95 274.97-14.95Q274.97-22.85 270.32-22.85L270.32-22.85Q265.22-22.85 265.07-14.95ZM289.47 0.45L289.47 0.45Q287.56 0.45 286.01-0.1 284.47-0.65 283.56-1.38 282.67-2.1 282.67-2.65L282.67-2.65Q282.67-3 282.97-3.6 283.26-4.2 283.69-4.7 284.12-5.2 284.37-5.2L284.37-5.2Q284.56-5.2 285.19-4.73 285.81-4.25 286.84-3.75 287.87-3.25 289.26-3.25L289.26-3.25Q291.06-3.25 292.06-4.15 293.06-5.05 293.06-6.9L293.06-6.9Q293.06-8.7 291.89-9.83 290.72-10.95 288.67-11.9L288.67-11.9Q286.06-13.15 284.67-14.83 283.26-16.5 283.26-19.4L283.26-19.4Q283.26-22.6 285.37-24.55 287.47-26.5 290.62-26.5L290.62-26.5Q291.97-26.5 293.24-26.2 294.51-25.9 295.34-25.43 296.17-24.95 296.17-24.35L296.17-24.35Q296.17-24 295.89-23.35 295.62-22.7 295.26-22.18 294.92-21.65 294.62-21.65L294.62-21.65Q294.42-21.65 293.44-22.28 292.47-22.9 290.87-22.9L290.87-22.9Q289.47-22.9 288.47-22.13 287.47-21.35 287.47-19.85L287.47-19.85Q287.47-18.15 288.56-17.13 289.67-16.1 291.22-15.35L291.22-15.35Q294.12-13.95 295.64-12.13 297.17-10.3 297.17-7L297.17-7Q297.17-4.7 296.12-3.03 295.06-1.35 293.34-0.45 291.62 0.45 289.47 0.45ZM307.11 0.45L307.11 0.45Q305.21 0.45 303.66-0.1 302.11-0.65 301.21-1.38 300.31-2.1 300.31-2.65L300.31-2.65Q300.31-3 300.61-3.6 300.91-4.2 301.34-4.7 301.76-5.2 302.01-5.2L302.01-5.2Q302.21-5.2 302.84-4.73 303.46-4.25 304.49-3.75 305.51-3.25 306.91-3.25L306.91-3.25Q308.71-3.25 309.71-4.15 310.71-5.05 310.71-6.9L310.71-6.9Q310.71-8.7 309.54-9.83 308.36-10.95 306.31-11.9L306.31-11.9Q303.71-13.15 302.31-14.83 300.91-16.5 300.91-19.4L300.91-19.4Q300.91-22.6 303.01-24.55 305.11-26.5 308.26-26.5L308.26-26.5Q309.61-26.5 310.89-26.2 312.16-25.9 312.99-25.43 313.81-24.95 313.81-24.35L313.81-24.35Q313.81-24 313.54-23.35 313.26-22.7 312.91-22.18 312.56-21.65 312.26-21.65L312.26-21.65Q312.06-21.65 311.09-22.28 310.11-22.9 308.51-22.9L308.51-22.9Q307.11-22.9 306.11-22.13 305.11-21.35 305.11-19.85L305.11-19.85Q305.11-18.15 306.21-17.13 307.31-16.1 308.86-15.35L308.86-15.35Q311.76-13.95 313.29-12.13 314.81-10.3 314.81-7L314.81-7Q314.81-4.7 313.76-3.03 312.71-1.35 310.99-0.45 309.26 0.45 307.11 0.45ZM331.61 0.45L331.61 0.45Q329.71 0.45 328.16-0.1 326.61-0.65 325.71-1.38 324.81-2.1 324.81-2.65L324.81-2.65Q324.81-3 325.11-3.6 325.41-4.2 325.83-4.7 326.26-5.2 326.51-5.2L326.51-5.2Q326.71-5.2 327.33-4.73 327.96-4.25 328.98-3.75 330.01-3.25 331.41-3.25L331.41-3.25Q333.21-3.25 334.21-4.15 335.21-5.05 335.21-6.9L335.21-6.9Q335.21-8.7 334.03-9.83 332.86-10.95 330.81-11.9L330.81-11.9Q328.21-13.15 326.81-14.83 325.41-16.5 325.41-19.4L325.41-19.4Q325.41-22.6 327.51-24.55 329.61-26.5 332.76-26.5L332.76-26.5Q334.11-26.5 335.38-26.2 336.66-25.9 337.48-25.43 338.31-24.95 338.31-24.35L338.31-24.35Q338.31-24 338.03-23.35 337.76-22.7 337.41-22.18 337.06-21.65 336.76-21.65L336.76-21.65Q336.56-21.65 335.58-22.28 334.61-22.9 333.01-22.9L333.01-22.9Q331.61-22.9 330.61-22.13 329.61-21.35 329.61-19.85L329.61-19.85Q329.61-18.15 330.71-17.13 331.81-16.1 333.36-15.35L333.36-15.35Q336.26-13.95 337.78-12.13 339.31-10.3 339.31-7L339.31-7Q339.31-4.7 338.26-3.03 337.21-1.35 335.48-0.45 333.76 0.45 331.61 0.45ZM346.85 0.1L346.45 0.1Q345.35 0.1 344.93-0.2 344.5-0.5 344.5-1L344.5-1 344.5-25.15Q344.5-25.7 344.93-25.98 345.35-26.25 346.45-26.25L346.45-26.25 346.85-26.25Q347.95-26.25 348.38-25.98 348.8-25.7 348.8-25.15L348.8-25.15 348.8-1Q348.8-0.5 348.38-0.2 347.95 0.1 346.85 0.1L346.85 0.1ZM346.65-29.75L346.65-29.75Q345.45-29.75 344.95-30.05 344.45-30.35 344.45-30.85L344.45-30.85 344.45-33.85Q344.45-34.35 344.95-34.65 345.45-34.95 346.65-34.95L346.65-34.95Q347.85-34.95 348.35-34.68 348.85-34.4 348.85-33.85L348.85-33.85 348.85-30.85Q348.85-30.35 348.35-30.05 347.85-29.75 346.65-29.75ZM358.35 0.1L357.95 0.1Q356.85 0.1 356.43-0.2 356-0.5 356-1L356-1 356-18.65Q356-21.75 355.75-23.18 355.5-24.6 355.5-25.1L355.5-25.1Q355.5-25.65 356.55-25.88 357.6-26.1 358.4-26.1L358.4-26.1Q359.1-26.1 359.38-25.35 359.65-24.6 360-22.7L360-22.7Q361.2-24.45 362.8-25.45 364.4-26.45 366.35-26.45L366.35-26.45Q368.1-26.45 369.8-25.55 371.5-24.65 372.2-22.45L372.2-22.45Q373.35-24.25 375-25.35 376.65-26.45 378.65-26.45L378.65-26.45Q380.3-26.45 381.75-25.75 383.2-25.05 384.08-23.55 384.95-22.05 384.95-19.6L384.95-19.6 384.95-1Q384.95-0.5 384.53-0.2 384.1 0.1 383 0.1L383 0.1 382.6 0.1Q381.5 0.1 381.08-0.2 380.65-0.5 380.65-1L380.65-1 380.65-18.75Q380.65-20.65 379.8-21.73 378.95-22.8 377.2-22.8L377.2-22.8Q375.5-22.8 374.28-21.58 373.05-20.35 372.6-19.15L372.6-19.15Q372.6-19 372.6-18.82 372.6-18.65 372.6-18.5L372.6-18.5 372.6-1Q372.6-0.5 372.18-0.2 371.75 0.1 370.65 0.1L370.65 0.1 370.25 0.1Q369.15 0.1 368.73-0.2 368.3-0.5 368.3-1L368.3-1 368.3-18.75Q368.3-20.65 367.48-21.73 366.65-22.8 364.9-22.8L364.9-22.8Q363.65-22.8 362.68-22.18 361.7-21.55 361.1-20.73 360.5-19.9 360.3-19.3L360.3-19.3 360.3-1Q360.3-0.5 359.88-0.2 359.45 0.1 358.35 0.1L358.35 0.1ZM394.45 10.4L393.9 10.4Q392 10.4 392 9.3L392 9.3 392-18.65Q392-21.75 391.75-23.18 391.5-24.6 391.5-25.1L391.5-25.1Q391.5-25.65 392.55-25.88 393.6-26.1 394.4-26.1L394.4-26.1Q395.05-26.1 395.32-25.45 395.6-24.8 395.95-23.1L395.95-23.1Q397.15-24.85 398.72-25.65 400.3-26.45 402-26.45L402-26.45Q404.45-26.45 406.2-24.78 407.95-23.1 408.92-20.13 409.9-17.15 409.9-13.25L409.9-13.25Q409.9-6.75 407.6-3.23 405.3 0.3 401.6 0.3L401.6 0.3Q399.75 0.3 398.52-0.43 397.3-1.15 396.3-2.25L396.3-2.25 396.3 9.3Q396.3 10.4 394.45 10.4L394.45 10.4ZM400.5-3.4L400.5-3.4Q403.05-3.4 404.27-5.95 405.5-8.5 405.5-13.3L405.5-13.3Q405.5-17.8 404.38-20.3 403.25-22.8 400.95-22.8L400.95-22.8Q398.35-22.8 396.3-19.35L396.3-19.35 396.3-5.65Q398.05-3.4 400.5-3.4ZM421.2 0.3L421.2 0.3Q420.15 0.3 418.87-0.15 417.6-0.6 416.65-1.93 415.7-3.25 415.7-5.8L415.7-5.8 415.7-36.5Q415.7-37.05 416.12-37.33 416.55-37.6 417.65-37.6L417.65-37.6 418.05-37.6Q419.15-37.6 419.57-37.33 420-37.05 420-36.5L420-36.5 420-6.3Q420-4.55 420.37-3.93 420.75-3.3 421.85-3.3L421.85-3.3Q422.75-3.3 423.17-3.43 423.6-3.55 423.85-3.55L423.85-3.55Q424.2-3.55 424.37-3.05 424.55-2.55 424.6-1.98 424.65-1.4 424.65-1.15L424.65-1.15Q424.65-0.65 424.05-0.33 423.45 0 422.65 0.15 421.85 0.3 421.2 0.3ZM437.14 0.3L437.14 0.3Q432.14 0.3 429.59-2.95 427.04-6.2 427.04-12.9L427.04-12.9Q427.04-19.55 429.54-23 432.04-26.45 436.89-26.45L436.89-26.45Q441.24-26.45 443.44-23.1 445.64-19.75 445.64-13.35L445.64-13.35Q445.64-11.35 443.89-11.35L443.89-11.35 431.44-11.35Q431.59-7.2 432.99-5.25 434.39-3.3 437.44-3.3L437.44-3.3Q439.19-3.3 440.54-3.8 441.89-4.3 442.77-4.78 443.64-5.25 443.89-5.25L443.89-5.25Q444.39-5.25 444.72-4.38 445.04-3.5 445.04-2.9L445.04-2.9Q445.04-2.45 443.99-1.68 442.94-0.9 441.17-0.3 439.39 0.3 437.14 0.3ZM431.49-14.95L431.49-14.95 441.39-14.95Q441.39-22.85 436.74-22.85L436.74-22.85Q431.64-22.85 431.49-14.95Z" opacity="1" transform="matrix(1,0,0,1,0,0)" fill="#009b7d" class="slogan-text-1" data-fill-palette-color="secondary" id="text-1"></path></svg></g></svg></g></svg></g></svg></g><g transform="matrix(1,0,0,1,61.65719911229072,0)"><svg viewBox="0 0 68.68560177541856 98.36742612204496" height="98.36742612204496" width="68.68560177541856"><g><svg xmlns="http://www.w3.org/2000/svg" xmlns:xlink="http://www.w3.org/1999/xlink" version="1.1" x="0" y="0" viewBox="18.578 5 62.84299999999999 90" enable-background="new 0 0 100 100" xml:space="preserve" height="98.36742612204496" width="68.68560177541856" class="icon-icon-0" data-fill-palette-color="accent" id="icon-0"><path d="M80.11 18.684c0.724 0 1.311-0.587 1.311-1.311v-5.82c0-0.724-0.587-1.311-1.311-1.311h-28.8V6.311C51.311 5.587 50.724 5 50 5s-1.311 0.587-1.311 1.311v3.932h-28.8c-0.724 0-1.311 0.587-1.311 1.311v5.82c0 0.724 0.587 1.311 1.311 1.311h1.276v36.122h-1.276c-0.724 0-1.311 0.587-1.311 1.311v4.369c0 0.724 0.587 1.311 1.311 1.311h28.816c-0.007 0.053-0.016 0.104-0.016 0.157v5.398c-1.503 0.541-2.586 1.968-2.586 3.654 0 2.148 1.749 3.897 3.897 3.897s3.897-1.749 3.897-3.897c0-1.687-1.084-3.113-2.587-3.654v-5.398c0-0.054-0.009-0.104-0.016-0.157H80.11c0.724 0 1.311-0.587 1.311-1.311v-4.369c0-0.724-0.587-1.311-1.311-1.311h-1.275V18.684H80.11zM50 72.281c-0.703 0-1.276-0.572-1.276-1.275S49.297 69.73 50 69.73s1.275 0.572 1.275 1.275S50.703 72.281 50 72.281zM78.8 59.175H21.2v-1.748h57.6V59.175zM21.2 12.864h57.6v3.198h-1.275H22.476 21.2V12.864zM76.214 54.789H23.787V18.684h52.427V54.789z" fill="#ffbf5d" data-fill-palette-color="accent"></path><path d="M31.697 64.511c-0.671-0.268-1.435 0.061-1.702 0.733L18.886 93.205c-0.268 0.673 0.061 1.435 0.734 1.702C19.778 94.97 19.942 95 20.104 95c0.521 0 1.014-0.313 1.218-0.827L32.43 66.212C32.698 65.54 32.37 64.777 31.697 64.511z" fill="#ffbf5d" data-fill-palette-color="accent"></path><path d="M70.003 65.244c-0.267-0.673-1.029-1.001-1.701-0.733-0.673 0.267-1.002 1.029-0.733 1.701l11.109 27.961C78.882 94.687 79.375 95 79.896 95c0.161 0 0.325-0.03 0.484-0.093 0.673-0.268 1.001-1.029 0.733-1.702L70.003 65.244z" fill="#ffbf5d" data-fill-palette-color="accent"></path><path d="M50 76.65c-0.724 0-1.311 0.587-1.311 1.311v15.729C48.689 94.413 49.276 95 50 95s1.311-0.587 1.311-1.311V77.961C51.311 77.237 50.724 76.65 50 76.65z" fill="#ffbf5d" data-fill-palette-color="accent"></path></svg></g></svg></g><g></g></svg></g></svg></g></svg></g></svg></g><defs></defs></svg><rect width="320" height="360" fill="none" stroke="none" visibility="hidden"></rect></g></svg></g></svg>